# xmcd CD database file
#
# Track frame offsets:
#	150
#	26106
#	48893
#	70350
#	92166
#	116781
#	137609
#	155926
#	179356
#	203191
#
# Disc length: 2930 seconds
#
# Revision: 0
# Processed by: cddbd v1.5.2PL0 Copyright (c) Steve Scherf et al.
# Submitted via: CDex 1.70beta2
#
DISCID=930b700a
DTITLE=Music for Wellness - Healing Relaxation
DYEAR=1900
DGENRE=New Age
TTITLE0=Impressions From The Top Of World
TTITLE1=Far Distance
TTITLE2=Crystal Water
TTITLE3=Feelings
TTITLE4=Stormy Hills
TTITLE5=Inner Silence
TTITLE6=Magic Voices
TTITLE7=Circle of Minds
TTITLE8=Harmony
TTITLE9=Mother Hearth
EXTD=
EXTT0=
EXTT1=
EXTT2=
EXTT3=
EXTT4=
EXTT5=
EXTT6=
EXTT7=
EXTT8=
EXTT9=
PLAYORDER=
